<svg width="16" height="9" viewBox="0 0 16 9" fill="none" xmlns="http://www.w3.org/2000/svg">
<path d="M15.9371 6.03065C15.9995 6.15498 16.0163 6.30266 15.9838 6.4412C15.9513 6.57974 15.8722 6.69779 15.7638 6.76939C15.6554 6.84098 15.5267 6.86025 15.406 6.82296C15.2852 6.78566 15.1823 6.69486 15.1199 6.57053L13.5515 3.41402C12.624 4.16005 11.5885 4.71119 10.493 5.04176L10.9769 8.37104C10.9871 8.44099 10.9852 8.51257 10.9713 8.58169C10.9574 8.6508 10.9318 8.7161 10.8959 8.77384C10.86 8.83158 10.8145 8.88064 10.7621 8.91821C10.7096 8.95578 10.6513 8.98113 10.5903 8.9928C10.5643 8.99735 10.5381 8.99976 10.5119 9C10.4007 8.99987 10.2933 8.95463 10.2084 8.87228C10.1236 8.78994 10.0669 8.67581 10.0484 8.5501L9.56844 5.26042C8.52918 5.4477 7.47082 5.4477 6.43156 5.26042L5.95475 8.5501C5.93621 8.67596 5.8794 8.79021 5.79441 8.87257C5.70942 8.95494 5.60174 9.00008 5.49049 9C5.46423 8.99976 5.43803 8.99735 5.41207 8.9928C5.35108 8.98103 5.29272 8.95558 5.24031 8.9179C5.18791 8.88023 5.14249 8.83107 5.10666 8.77324C5.07082 8.71541 5.04527 8.65004 5.03147 8.58087C5.01767 8.51171 5.01589 8.4401 5.02623 8.37014L5.5101 5.04086C4.41467 4.71029 3.37911 4.15915 2.45163 3.41312L0.880054 6.57053C0.817658 6.69486 0.71477 6.78566 0.594026 6.82296C0.473281 6.86025 0.34457 6.84098 0.236208 6.76939C0.127846 6.69779 0.0487095 6.57974 0.0162071 6.4412C-0.0162954 6.30266 0.000499011 6.15498 0.0628955 6.03065L1.698 2.74817C1.11629 2.18498 0.582942 1.55915 0.105243 0.879273C0.0268318 0.767827 -0.00978335 0.625206 0.00345296 0.482784C0.0166893 0.340363 0.0786927 0.209807 0.175823 0.119839C0.272954 0.0298708 0.397255 -0.0121408 0.521382 0.00304629C0.645509 0.0182334 0.759294 0.0893754 0.837706 0.200822C2.16069 2.08141 4.47649 4.32102 8 4.32102C11.5235 4.32102 13.8393 2.08141 15.1623 0.202622C15.2407 0.0911754 15.3545 0.0200334 15.4786 0.00484628C15.6027 -0.0103408 15.727 0.0316708 15.8242 0.121639C15.9213 0.211607 15.9833 0.342162 15.9965 0.484584C16.0098 0.627005 15.9732 0.769627 15.8948 0.881073C15.4171 1.56095 14.8837 2.18677 14.302 2.74996L15.9371 6.03065Z" fill="white"/>
</svg>
