<svg width="200" height="18" viewBox="0 0 200 18" fill="none" xmlns="http://www.w3.org/2000/svg">
<path d="M4.98965 5.12V7.936H6.63965C7.02098 7.936 7.27765 7.84067 7.40965 7.65C7.54165 7.44467 7.60765 7.19533 7.60765 6.902V6.154C7.60765 5.86067 7.54165 5.61867 7.40965 5.428C7.27765 5.22267 7.02098 5.12 6.63965 5.12H4.98965ZM4.19765 17H0.809649C0.530982 17 0.325649 16.9413 0.193649 16.824C0.0763159 16.692 0.0176492 16.4867 0.0176492 16.208V1.952C0.0176492 1.67333 0.0763159 1.47533 0.193649 1.358C0.325649 1.226 0.530982 1.16 0.809649 1.16H8.13565C9.77832 1.16 10.9076 1.50467 11.5236 2.194C12.1543 2.86867 12.4697 3.74867 12.4697 4.834V5.846C12.4697 6.462 12.3743 6.99 12.1836 7.43C12.0076 7.85533 11.6923 8.16333 11.2377 8.354C12.0296 8.442 12.6676 8.76467 13.1516 9.322C13.6503 9.87933 13.8997 10.62 13.8997 11.544V16.208C13.8997 16.4867 13.8337 16.692 13.7017 16.824C13.5843 16.9413 13.3863 17 13.1076 17H9.69765C9.41898 17 9.21365 16.9413 9.08165 16.824C8.96432 16.692 8.90565 16.4867 8.90565 16.208V12.842C8.90565 12.5193 8.83965 12.2847 8.70765 12.138C8.59032 11.9767 8.37765 11.896 8.06965 11.896H4.98965V16.208C4.98965 16.4867 4.92365 16.692 4.79165 16.824C4.67432 16.9413 4.47632 17 4.19765 17ZM29.3473 17H19.1393C18.8606 17 18.6553 16.9413 18.5233 16.824C18.4059 16.692 18.3473 16.4867 18.3473 16.208V1.952C18.3473 1.67333 18.4059 1.47533 18.5233 1.358C18.6553 1.226 18.8606 1.16 19.1393 1.16H29.3473C29.6259 1.16 29.8239 1.226 29.9413 1.358C30.0733 1.47533 30.1393 1.67333 30.1393 1.952V4.526C30.1393 4.80467 30.0733 5.01 29.9413 5.142C29.8239 5.25933 29.6259 5.318 29.3473 5.318H23.2753V7.012H27.5653C27.8439 7.012 28.0419 7.078 28.1593 7.21C28.2913 7.32733 28.3573 7.52533 28.3573 7.804V10.158C28.3573 10.4367 28.2913 10.642 28.1593 10.774C28.0419 10.8913 27.8439 10.95 27.5653 10.95H23.2753V12.842H29.3473C29.6259 12.842 29.8239 12.908 29.9413 13.04C30.0733 13.1573 30.1393 13.3553 30.1393 13.634V16.208C30.1393 16.4867 30.0733 16.692 29.9413 16.824C29.8239 16.9413 29.6259 17 29.3473 17ZM46.7144 17H39.7844C37.951 17 36.587 16.6333 35.6924 15.9C34.8124 15.1667 34.3724 14.0373 34.3724 12.512V5.648C34.3724 4.12267 34.8124 2.99333 35.6924 2.26C36.587 1.52667 37.951 1.16 39.7844 1.16H45.2844C45.563 1.16 45.761 1.226 45.8784 1.358C46.0104 1.47533 46.0764 1.67333 46.0764 1.952V4.614C46.0764 4.89267 46.0104 5.098 45.8784 5.23C45.761 5.34733 45.563 5.406 45.2844 5.406H40.7084C40.2537 5.406 39.9164 5.50133 39.6964 5.692C39.4764 5.868 39.3664 6.13933 39.3664 6.506V11.764C39.3664 12.1307 39.447 12.402 39.6084 12.578C39.7844 12.754 40.041 12.842 40.3784 12.842H42.5124V9.41C42.5124 9.13133 42.571 8.93333 42.6884 8.816C42.8204 8.684 43.0257 8.618 43.3044 8.618H46.7144C46.993 8.618 47.191 8.684 47.3084 8.816C47.4404 8.93333 47.5064 9.13133 47.5064 9.41V16.208C47.5064 16.4867 47.4404 16.692 47.3084 16.824C47.191 16.9413 46.993 17 46.7144 17ZM63.1705 17H52.9625C52.6839 17 52.4785 16.9413 52.3465 16.824C52.2292 16.692 52.1705 16.4867 52.1705 16.208V1.952C52.1705 1.67333 52.2292 1.47533 52.3465 1.358C52.4785 1.226 52.6839 1.16 52.9625 1.16H63.1705C63.4492 1.16 63.6472 1.226 63.7645 1.358C63.8965 1.47533 63.9625 1.67333 63.9625 1.952V4.526C63.9625 4.80467 63.8965 5.01 63.7645 5.142C63.6472 5.25933 63.4492 5.318 63.1705 5.318H57.0985V7.012H61.3885C61.6672 7.012 61.8652 7.078 61.9825 7.21C62.1145 7.32733 62.1805 7.52533 62.1805 7.804V10.158C62.1805 10.4367 62.1145 10.642 61.9825 10.774C61.8652 10.8913 61.6672 10.95 61.3885 10.95H57.0985V12.842H63.1705C63.4492 12.842 63.6472 12.908 63.7645 13.04C63.8965 13.1573 63.9625 13.3553 63.9625 13.634V16.208C63.9625 16.4867 63.8965 16.692 63.7645 16.824C63.6472 16.9413 63.4492 17 63.1705 17ZM75.8931 17H68.9411C68.6624 17 68.4571 16.9413 68.3251 16.824C68.2077 16.692 68.1491 16.4867 68.1491 16.208V13.634C68.1491 13.3553 68.2077 13.1573 68.3251 13.04C68.4571 12.908 68.6624 12.842 68.9411 12.842H74.8591C75.0497 12.842 75.1891 12.7833 75.2771 12.666C75.3797 12.534 75.4311 12.38 75.4311 12.204C75.4311 11.9547 75.3797 11.7713 75.2771 11.654C75.1891 11.5367 75.0497 11.4707 74.8591 11.456L71.5591 10.994C70.5324 10.8473 69.7037 10.51 69.0731 9.982C68.4571 9.454 68.1491 8.574 68.1491 7.342V5.032C68.1491 3.78533 68.5524 2.832 69.3591 2.172C70.1657 1.49733 71.2804 1.16 72.7031 1.16H78.8631C79.1417 1.16 79.3397 1.226 79.4571 1.358C79.5891 1.47533 79.6551 1.67333 79.6551 1.952V4.57C79.6551 4.84867 79.5891 5.054 79.4571 5.186C79.3397 5.30333 79.1417 5.362 78.8631 5.362H73.7371C73.5464 5.362 73.3997 5.428 73.2971 5.56C73.1944 5.67733 73.1431 5.83133 73.1431 6.022C73.1431 6.21267 73.1944 6.374 73.2971 6.506C73.3997 6.638 73.5464 6.71133 73.7371 6.726L77.0151 7.166C78.0417 7.31267 78.8704 7.65 79.5011 8.178C80.1317 8.706 80.4471 9.586 80.4471 10.818V13.128C80.4471 14.3747 80.0364 15.3353 79.2151 16.01C78.4084 16.67 77.3011 17 75.8931 17ZM92.0988 17H88.5348C88.2562 17 88.0508 16.9413 87.9188 16.824C87.8015 16.692 87.7428 16.4867 87.7428 16.208V5.406H84.5088C84.2302 5.406 84.0248 5.34733 83.8928 5.23C83.7755 5.098 83.7168 4.89267 83.7168 4.614V1.952C83.7168 1.67333 83.7755 1.47533 83.8928 1.358C84.0248 1.226 84.2302 1.16 84.5088 1.16H96.1248C96.4035 1.16 96.6015 1.226 96.7188 1.358C96.8508 1.47533 96.9168 1.67333 96.9168 1.952V4.614C96.9168 4.89267 96.8508 5.098 96.7188 5.23C96.6015 5.34733 96.4035 5.406 96.1248 5.406H92.8908V16.208C92.8908 16.4867 92.8248 16.692 92.6928 16.824C92.5755 16.9413 92.3775 17 92.0988 17ZM106.008 5.12V7.936H107.658C108.04 7.936 108.296 7.84067 108.428 7.65C108.56 7.44467 108.626 7.19533 108.626 6.902V6.154C108.626 5.86067 108.56 5.61867 108.428 5.428C108.296 5.22267 108.04 5.12 107.658 5.12H106.008ZM105.216 17H101.828C101.55 17 101.344 16.9413 101.212 16.824C101.095 16.692 101.036 16.4867 101.036 16.208V1.952C101.036 1.67333 101.095 1.47533 101.212 1.358C101.344 1.226 101.55 1.16 101.828 1.16H109.154C110.797 1.16 111.926 1.50467 112.542 2.194C113.173 2.86867 113.488 3.74867 113.488 4.834V5.846C113.488 6.462 113.393 6.99 113.202 7.43C113.026 7.85533 112.711 8.16333 112.256 8.354C113.048 8.442 113.686 8.76467 114.17 9.322C114.669 9.87933 114.918 10.62 114.918 11.544V16.208C114.918 16.4867 114.852 16.692 114.72 16.824C114.603 16.9413 114.405 17 114.126 17H110.716C110.438 17 110.232 16.9413 110.1 16.824C109.983 16.692 109.924 16.4867 109.924 16.208V12.842C109.924 12.5193 109.858 12.2847 109.726 12.138C109.609 11.9767 109.396 11.896 109.088 11.896H106.008V16.208C106.008 16.4867 105.942 16.692 105.81 16.824C105.693 16.9413 105.495 17 105.216 17ZM125.108 5.78L124.074 9.124H127.528L126.494 5.78C126.435 5.648 126.369 5.55267 126.296 5.494C126.237 5.43533 126.164 5.406 126.076 5.406H125.526C125.438 5.406 125.357 5.43533 125.284 5.494C125.225 5.55267 125.167 5.648 125.108 5.78ZM123.854 16.208C123.854 16.4867 123.788 16.692 123.656 16.824C123.539 16.9413 123.341 17 123.062 17H119.828C119.549 17 119.344 16.9413 119.212 16.824C119.095 16.692 119.036 16.4867 119.036 16.208V10.4C119.036 9.96 119.102 9.454 119.234 8.882C119.381 8.31 119.601 7.64267 119.894 6.88L121.808 1.886C121.896 1.63667 122.028 1.45333 122.204 1.336C122.395 1.21867 122.637 1.16 122.93 1.16H128.848C129.127 1.16 129.354 1.21867 129.53 1.336C129.721 1.45333 129.86 1.63667 129.948 1.886L131.862 6.88C132.155 7.64267 132.368 8.31 132.5 8.882C132.647 9.454 132.72 9.96 132.72 10.4V16.208C132.72 16.4867 132.654 16.692 132.522 16.824C132.405 16.9413 132.207 17 131.928 17H128.606C128.313 17 128.093 16.9413 127.946 16.824C127.814 16.692 127.748 16.4867 127.748 16.208V13.128H123.854V16.208ZM144.015 17H140.451C140.173 17 139.967 16.9413 139.835 16.824C139.718 16.692 139.659 16.4867 139.659 16.208V5.406H136.425C136.147 5.406 135.941 5.34733 135.809 5.23C135.692 5.098 135.633 4.89267 135.633 4.614V1.952C135.633 1.67333 135.692 1.47533 135.809 1.358C135.941 1.226 136.147 1.16 136.425 1.16H148.041C148.32 1.16 148.518 1.226 148.635 1.358C148.767 1.47533 148.833 1.67333 148.833 1.952V4.614C148.833 4.89267 148.767 5.098 148.635 5.23C148.518 5.34733 148.32 5.406 148.041 5.406H144.807V16.208C144.807 16.4867 144.741 16.692 144.609 16.824C144.492 16.9413 144.294 17 144.015 17ZM153.393 17C153.114 17 152.909 16.9413 152.777 16.824C152.66 16.692 152.601 16.4867 152.601 16.208V13.59C152.601 13.3113 152.66 13.1133 152.777 12.996C152.909 12.864 153.114 12.798 153.393 12.798H155.571V5.406H153.393C153.114 5.406 152.909 5.34733 152.777 5.23C152.66 5.098 152.601 4.89267 152.601 4.614V1.952C152.601 1.67333 152.66 1.47533 152.777 1.358C152.909 1.226 153.114 1.16 153.393 1.16H162.765C163.044 1.16 163.242 1.226 163.359 1.358C163.491 1.47533 163.557 1.67333 163.557 1.952V4.614C163.557 4.89267 163.491 5.098 163.359 5.23C163.242 5.34733 163.044 5.406 162.765 5.406H160.631V12.798H162.765C163.044 12.798 163.242 12.864 163.359 12.996C163.491 13.1133 163.557 13.3113 163.557 13.59V16.208C163.557 16.4867 163.491 16.692 163.359 16.824C163.242 16.9413 163.044 17 162.765 17H153.393ZM181.673 12.842C181.673 13.5167 181.571 14.1327 181.365 14.69C181.175 15.2327 180.823 15.702 180.309 16.098C179.811 16.4793 179.114 16.78 178.219 17C177.339 17.22 176.217 17.33 174.853 17.33C173.489 17.33 172.36 17.22 171.465 17C170.571 16.78 169.867 16.4793 169.353 16.098C168.855 15.702 168.503 15.2327 168.297 14.69C168.107 14.1327 168.011 13.5167 168.011 12.842V5.34C168.011 4.66533 168.107 4.05667 168.297 3.514C168.503 2.95667 168.855 2.48 169.353 2.084C169.867 1.688 170.571 1.38 171.465 1.16C172.36 0.94 173.489 0.83 174.853 0.83C176.217 0.83 177.339 0.94 178.219 1.16C179.114 1.38 179.811 1.688 180.309 2.084C180.823 2.48 181.175 2.95667 181.365 3.514C181.571 4.05667 181.673 4.66533 181.673 5.34V12.842ZM173.005 12.05C173.005 12.3433 173.115 12.5927 173.335 12.798C173.555 12.9887 174.061 13.084 174.853 13.084C175.645 13.084 176.151 12.9887 176.371 12.798C176.591 12.5927 176.701 12.3433 176.701 12.05V6.132C176.701 5.85333 176.591 5.61867 176.371 5.428C176.151 5.22267 175.645 5.12 174.853 5.12C174.061 5.12 173.555 5.22267 173.335 5.428C173.115 5.61867 173.005 5.85333 173.005 6.132V12.05ZM190.546 17H187.246C186.967 17 186.762 16.9413 186.63 16.824C186.513 16.692 186.454 16.4867 186.454 16.208V1.952C186.454 1.67333 186.513 1.47533 186.63 1.358C186.762 1.226 186.967 1.16 187.246 1.16H189.534C189.813 1.16 190.047 1.204 190.238 1.292C190.443 1.38 190.641 1.534 190.832 1.754L195.1 6.638V1.952C195.1 1.67333 195.159 1.47533 195.276 1.358C195.408 1.226 195.613 1.16 195.892 1.16H199.192C199.471 1.16 199.669 1.226 199.786 1.358C199.918 1.47533 199.984 1.67333 199.984 1.952V16.208C199.984 16.4867 199.918 16.692 199.786 16.824C199.669 16.9413 199.471 17 199.192 17H195.892C195.613 17 195.408 16.9413 195.276 16.824C195.159 16.692 195.1 16.4867 195.1 16.208V13.502L191.338 8.948V16.208C191.338 16.4867 191.272 16.692 191.14 16.824C191.023 16.9413 190.825 17 190.546 17Z" fill="white"/>
<path d="M4.98965 5.12V4.87H4.73965V5.12H4.98965ZM4.98965 7.936H4.73965V8.186H4.98965V7.936ZM7.40965 7.65L7.61532 7.79239L7.61995 7.78519L7.40965 7.65ZM7.40965 5.428L7.19923 5.56327L7.2041 5.5703L7.40965 5.428ZM0.193649 16.824L0.00679779 16.9901L0.0165672 17.0011L0.0275574 17.0109L0.193649 16.824ZM0.193649 1.358L0.0168724 1.18122L0.193649 1.358ZM11.5237 2.194L11.3372 2.36062L11.341 2.36472L11.5237 2.194ZM12.1837 7.43L11.9542 7.33058L11.9526 7.33441L12.1837 7.43ZM11.2377 8.354L11.141 8.12345L10.2524 8.49607L11.21 8.60247L11.2377 8.354ZM13.1516 9.322L12.9629 9.48594L12.9653 9.4887L13.1516 9.322ZM13.7016 16.824L13.8784 17.0008L13.7016 16.824ZM9.08165 16.824L8.8948 16.9901L8.90457 17.0011L8.91556 17.0109L9.08165 16.824ZM8.70765 12.138L8.50547 12.285L8.51312 12.2956L8.52183 12.3052L8.70765 12.138ZM4.98965 11.896V11.646H4.73965V11.896H4.98965ZM4.79165 16.824L4.61487 16.6472L4.79165 16.824ZM4.73965 5.12V7.936H5.23965V5.12H4.73965ZM4.98965 8.186H6.63965V7.686H4.98965V8.186ZM6.63965 8.186C7.04958 8.186 7.41267 8.08485 7.6152 7.7923L7.2041 7.5077C7.14264 7.59648 6.99239 7.686 6.63965 7.686V8.186ZM7.61995 7.78519C7.78269 7.53203 7.85765 7.2335 7.85765 6.902H7.35765C7.35765 7.15717 7.30061 7.3573 7.19936 7.51481L7.61995 7.78519ZM7.85765 6.902V6.154H7.35765V6.902H7.85765ZM7.85765 6.154C7.85765 5.82331 7.78298 5.52804 7.6152 5.2857L7.2041 5.5703C7.30032 5.70929 7.35765 5.89802 7.35765 6.154H7.85765ZM7.61995 5.29281C7.42019 4.98208 7.05594 4.87 6.63965 4.87V5.37C6.98603 5.37 7.13511 5.46325 7.19936 5.56319L7.61995 5.29281ZM6.63965 4.87H4.98965V5.37H6.63965V4.87ZM4.19765 16.75H0.80965V17.25H4.19765V16.75ZM0.80965 16.75C0.55854 16.75 0.425877 16.6959 0.359741 16.6371L0.0275574 17.0109C0.225422 17.1867 0.503426 17.25 0.80965 17.25V16.75ZM0.380501 16.6579C0.321712 16.5918 0.267651 16.4591 0.267651 16.208H-0.232349C-0.232349 16.5142 -0.169083 16.7922 0.00679779 16.9901L0.380501 16.6579ZM0.267651 16.208V1.952H-0.232349V16.208H0.267651ZM0.267651 1.952C0.267651 1.69719 0.323257 1.58195 0.370426 1.53478L0.0168724 1.18122C-0.170624 1.36872 -0.232349 1.64948 -0.232349 1.952H0.267651ZM0.370426 1.53478C0.436775 1.46843 0.564938 1.41 0.80965 1.41V0.91C0.497028 0.91 0.214523 0.983572 0.0168724 1.18122L0.370426 1.53478ZM0.80965 1.41H8.13565V0.91H0.80965V1.41ZM8.13565 1.41C9.75882 1.41 10.7947 1.75344 11.3372 2.36058L11.7101 2.02742C11.0206 1.2559 9.79781 0.91 8.13565 0.91V1.41ZM11.341 2.36472C11.9209 2.9851 12.2197 3.80021 12.2197 4.834H12.7197C12.7197 3.69712 12.3877 2.75223 11.7063 2.02328L11.341 2.36472ZM12.2197 4.834V5.846H12.7197V4.834H12.2197ZM12.2197 5.846C12.2197 6.43714 12.1281 6.92954 11.9543 7.3306L12.413 7.5294C12.6206 7.05046 12.7197 6.48686 12.7197 5.846H12.2197ZM11.9526 7.33441C11.8038 7.69417 11.5396 7.95629 11.141 8.12345L11.3343 8.58455C11.845 8.37038 12.2115 8.01649 12.4147 7.52559L11.9526 7.33441ZM11.21 8.60247C11.945 8.68414 12.5235 8.97998 12.9629 9.48592L13.3404 9.15808C12.8118 8.54936 12.1143 8.19986 11.2653 8.10553L11.21 8.60247ZM12.9653 9.4887C13.4139 9.99006 13.6497 10.6664 13.6497 11.544H14.1497C14.1497 10.5736 13.8867 9.76861 13.338 9.1553L12.9653 9.4887ZM13.6497 11.544V16.208H14.1497V11.544H13.6497ZM13.6497 16.208C13.6497 16.4527 13.5912 16.5809 13.5249 16.6472L13.8784 17.0008C14.0761 16.8031 14.1497 16.5206 14.1497 16.208H13.6497ZM13.5249 16.6472C13.4777 16.6944 13.3625 16.75 13.1077 16.75V17.25C13.4102 17.25 13.6909 17.1883 13.8784 17.0008L13.5249 16.6472ZM13.1077 16.75H9.69765V17.25H13.1077V16.75ZM9.69765 16.75C9.44654 16.75 9.31388 16.6959 9.24774 16.6371L8.91556 17.0109C9.11342 17.1867 9.39143 17.25 9.69765 17.25V16.75ZM9.2685 16.6579C9.20971 16.5918 9.15565 16.4591 9.15565 16.208H8.65565C8.65565 16.5142 8.71892 16.7922 8.8948 16.9901L9.2685 16.6579ZM9.15565 16.208V12.842H8.65565V16.208H9.15565ZM9.15565 12.842C9.15565 12.4944 9.08614 12.1848 8.89347 11.9708L8.52183 12.3052C8.59315 12.3845 8.65565 12.5443 8.65565 12.842H9.15565ZM8.90983 11.991C8.72418 11.7357 8.41283 11.646 8.06965 11.646V12.146C8.34247 12.146 8.45645 12.2177 8.50547 12.285L8.90983 11.991ZM8.06965 11.646H4.98965V12.146H8.06965V11.646ZM4.73965 11.896V16.208H5.23965V11.896H4.73965ZM4.73965 16.208C4.73965 16.4527 4.68122 16.5809 4.61487 16.6472L4.96843 17.0008C5.16608 16.8031 5.23965 16.5206 5.23965 16.208H4.73965ZM4.61487 16.6472C4.5677 16.6944 4.45247 16.75 4.19765 16.75V17.25C4.50017 17.25 4.78093 17.1883 4.96843 17.0008L4.61487 16.6472ZM18.5233 16.824L18.3364 16.9901L18.3462 17.0011L18.3572 17.0109L18.5233 16.824ZM18.5233 1.358L18.3465 1.18122H18.3465L18.5233 1.358ZM29.9413 1.358L29.7544 1.52409L29.7642 1.53508L29.7752 1.54485L29.9413 1.358ZM23.2753 5.318V5.068H23.0253V5.318H23.2753ZM23.2753 7.012H23.0253V7.262H23.2753V7.012ZM28.1593 7.21L27.9724 7.37609L27.9822 7.38708L27.9932 7.39685L28.1593 7.21ZM28.1593 10.774L27.9825 10.5972L28.1593 10.774ZM23.2753 10.95V10.7H23.0253V10.95H23.2753ZM23.2753 12.842H23.0253V13.092H23.2753V12.842ZM29.9413 13.04L29.7544 13.2061L29.7642 13.2171L29.7752 13.2269L29.9413 13.04ZM29.9413 16.824L30.118 17.0008L29.9413 16.824ZM29.3473 16.75H19.1393V17.25H29.3473V16.75ZM19.1393 16.75C18.8881 16.75 18.7555 16.6959 18.6893 16.6371L18.3572 17.0109C18.555 17.1867 18.833 17.25 19.1393 17.25V16.75ZM18.7101 16.6579C18.6513 16.5918 18.5973 16.4591 18.5973 16.208H18.0973C18.0973 16.5142 18.1605 16.7922 18.3364 16.9901L18.7101 16.6579ZM18.5973 16.208V1.952H18.0973V16.208H18.5973ZM18.5973 1.952C18.5973 1.69719 18.6529 1.58195 18.7 1.53478L18.3465 1.18122C18.159 1.36872 18.0973 1.64948 18.0973 1.952H18.5973ZM18.7 1.53478C18.7664 1.46843 18.8945 1.41 19.1393 1.41V0.91C18.8266 0.91 18.5441 0.983572 18.3465 1.18122L18.7 1.53478ZM19.1393 1.41H29.3473V0.91H19.1393V1.41ZM29.3473 1.41C29.5952 1.41 29.7061 1.46976 29.7544 1.52409L30.1281 1.19191C29.9417 0.982241 29.6566 0.91 29.3473 0.91V1.41ZM29.7752 1.54485C29.8295 1.59315 29.8893 1.70405 29.8893 1.952H30.3893C30.3893 1.64261 30.317 1.35752 30.1073 1.17115L29.7752 1.54485ZM29.8893 1.952V4.526H30.3893V1.952H29.8893ZM29.8893 4.526C29.8893 4.77071 29.8308 4.89887 29.7645 4.96522L30.118 5.31878C30.3157 5.12113 30.3893 4.83862 30.3893 4.526H29.8893ZM29.7645 4.96522C29.7173 5.01239 29.6021 5.068 29.3473 5.068V5.568C29.6498 5.568 29.9305 5.50627 30.118 5.31878L29.7645 4.96522ZM29.3473 5.068H23.2753V5.568H29.3473V5.068ZM23.0253 5.318V7.012H23.5253V5.318H23.0253ZM23.2753 7.262H27.5653V6.762H23.2753V7.262ZM27.5653 7.262C27.8132 7.262 27.9241 7.32176 27.9724 7.37609L28.3461 7.04391C28.1597 6.83424 27.8746 6.762 27.5653 6.762V7.262ZM27.9932 7.39685C28.0475 7.44515 28.1073 7.55605 28.1073 7.804H28.6073C28.6073 7.49461 28.535 7.20952 28.3253 7.02315L27.9932 7.39685ZM28.1073 7.804V10.158H28.6073V7.804H28.1073ZM28.1073 10.158C28.1073 10.4027 28.0488 10.5309 27.9825 10.5972L28.336 10.9508C28.5337 10.7531 28.6073 10.4706 28.6073 10.158H28.1073ZM27.9825 10.5972C27.9353 10.6444 27.8201 10.7 27.5653 10.7V11.2C27.8678 11.2 28.1485 11.1383 28.336 10.9508L27.9825 10.5972ZM27.5653 10.7H23.2753V11.2H27.5653V10.7ZM23.0253 10.95V12.842H23.5253V10.95H23.0253ZM23.2753 13.092H29.3473V12.592H23.2753V13.092ZM29.3473 13.092C29.5952 13.092 29.7061 13.1518 29.7544 13.2061L30.1281 12.8739C29.9417 12.6642 29.6566 12.592 29.3473 12.592V13.092ZM29.7752 13.2269C29.8295 13.2751 29.8893 13.3861 29.8893 13.634H30.3893C30.3893 13.3246 30.317 13.0395 30.1073 12.8531L29.7752 13.2269ZM29.8893 13.634V16.208H30.3893V13.634H29.8893ZM29.8893 16.208C29.8893 16.4527 29.8308 16.5809 29.7645 16.6472L30.118 17.0008C30.3157 16.8031 30.3893 16.5206 30.3893 16.208H29.8893ZM29.7645 16.6472C29.7173 16.6944 29.6021 16.75 29.3473 16.75V17.25C29.6498 17.25 29.9305 17.1883 30.118 17.0008L29.7645 16.6472ZM35.6924 15.9L35.5323 16.0921L35.5339 16.0933L35.6924 15.9ZM35.6924 2.26L35.5339 2.06664L35.5323 2.06794L35.6924 2.26ZM45.8784 1.358L45.6915 1.52409L45.7013 1.53508L45.7123 1.54485L45.8784 1.358ZM39.6964 5.692L39.8527 5.88737L39.8601 5.88092L39.6964 5.692ZM39.6084 12.578L39.4239 12.7471L39.4316 12.7548L39.6084 12.578ZM42.5124 12.842V13.092H42.7624V12.842H42.5124ZM47.3084 8.816L47.1215 8.98209L47.1313 8.99308L47.1423 9.00285L47.3084 8.816ZM47.3084 16.824L47.4851 17.0008L47.3084 16.824ZM46.7144 16.75H39.7844V17.25H46.7144V16.75ZM39.7844 16.75C37.9771 16.75 36.6812 16.3873 35.8508 15.7067L35.5339 16.0933C36.4928 16.8794 37.925 17.25 39.7844 17.25V16.75ZM35.8524 15.7079C35.0469 15.0367 34.6224 13.9893 34.6224 12.512H34.1224C34.1224 14.0853 34.5779 15.2967 35.5323 16.0921L35.8524 15.7079ZM34.6224 12.512V5.648H34.1224V12.512H34.6224ZM34.6224 5.648C34.6224 4.17066 35.0469 3.12334 35.8524 2.45205L35.5323 2.06794C34.5779 2.86333 34.1224 4.07467 34.1224 5.648H34.6224ZM35.8508 2.45335C36.6812 1.77269 37.9771 1.41 39.7844 1.41V0.91C37.925 0.91 36.4928 1.28064 35.5339 2.06665L35.8508 2.45335ZM39.7844 1.41H45.2844V0.91H39.7844V1.41ZM45.2844 1.41C45.5323 1.41 45.6432 1.46976 45.6915 1.52409L46.0652 1.19191C45.8788 0.982241 45.5938 0.91 45.2844 0.91V1.41ZM45.7123 1.54485C45.7666 1.59315 45.8264 1.70405 45.8264 1.952H46.3264C46.3264 1.64261 46.2541 1.35752 46.0445 1.17115L45.7123 1.54485ZM45.8264 1.952V4.614H46.3264V1.952H45.8264ZM45.8264 4.614C45.8264 4.85871 45.7679 4.98687 45.7016 5.05322L46.0551 5.40678C46.2528 5.20913 46.3264 4.92662 46.3264 4.614H45.8264ZM45.7016 5.05322C45.6544 5.10039 45.5392 5.156 45.2844 5.156V5.656C45.5869 5.656 45.8676 5.59427 46.0551 5.40678L45.7016 5.05322ZM45.2844 5.156H40.7084V5.656H45.2844V5.156ZM40.7084 5.156C40.2257 5.156 39.8176 5.2561 39.5326 5.50308L39.8601 5.88092C40.0151 5.74656 40.2817 5.656 40.7084 5.656V5.156ZM39.5402 5.49678C39.2439 5.73379 39.1164 6.08814 39.1164 6.506H39.6164C39.6164 6.19052 39.7088 6.00221 39.8525 5.88722L39.5402 5.49678ZM39.1164 6.506V11.764H39.6164V6.506H39.1164ZM39.1164 11.764C39.1164 12.1608 39.2028 12.5055 39.4241 12.7469L39.7927 12.4091C39.6913 12.2985 39.6164 12.1005 39.6164 11.764H39.1164ZM39.4316 12.7548C39.6692 12.9924 39.9989 13.092 40.3784 13.092V12.592C40.0831 12.592 39.8996 12.5156 39.7851 12.4012L39.4316 12.7548ZM40.3784 13.092H42.5124V12.592H40.3784V13.092ZM42.7624 12.842V9.41H42.2624V12.842H42.7624ZM42.7624 9.41C42.7624 9.15519 42.818 9.03995 42.8651 8.99278L42.5116 8.63922C42.3241 8.82672 42.2624 9.10748 42.2624 9.41H42.7624ZM42.8651 8.99278C42.9315 8.92643 43.0597 8.868 43.3044 8.868V8.368C42.9917 8.368 42.7092 8.44157 42.5116 8.63922L42.8651 8.99278ZM43.3044 8.868H46.7144V8.368H43.3044V8.868ZM46.7144 8.868C46.9623 8.868 47.0732 8.92776 47.1215 8.98209L47.4952 8.64991C47.3088 8.44024 47.0238 8.368 46.7144 8.368V8.868ZM47.1423 9.00285C47.1966 9.05115 47.2564 9.16205 47.2564 9.41H47.7564C47.7564 9.10061 47.6841 8.81552 47.4745 8.62915L47.1423 9.00285ZM47.2564 9.41V16.208H47.7564V9.41H47.2564ZM47.2564 16.208C47.2564 16.4527 47.1979 16.5809 47.1316 16.6472L47.4851 17.0008C47.6828 16.8031 47.7564 16.5206 47.7564 16.208H47.2564ZM47.1316 16.6472C47.0844 16.6944 46.9692 16.75 46.7144 16.75V17.25C47.0169 17.25 47.2976 17.1883 47.4851 17.0008L47.1316 16.6472ZM52.3465 16.824L52.1597 16.9901L52.1695 17.0011L52.1805 17.0109L52.3465 16.824ZM52.3465 1.358L52.1698 1.18122H52.1698L52.3465 1.358ZM63.7645 1.358L63.5777 1.52409L63.5875 1.53508L63.5984 1.54485L63.7645 1.358ZM57.0985 5.318V5.068H56.8485V5.318H57.0985ZM57.0985 7.012H56.8485V7.262H57.0985V7.012ZM61.9825 7.21L61.7957 7.37609L61.8055 7.38708L61.8165 7.39685L61.9825 7.21ZM61.9825 10.774L61.8058 10.5972L61.9825 10.774ZM57.0985 10.95V10.7H56.8485V10.95H57.0985ZM57.0985 12.842H56.8485V13.092H57.0985V12.842ZM63.7645 13.04L63.5777 13.2061L63.5875 13.2171L63.5984 13.2269L63.7645 13.04ZM63.7645 16.824L63.9413 17.0008L63.7645 16.824ZM63.1705 16.75H52.9625V17.25H63.1705V16.75ZM52.9625 16.75C52.7114 16.75 52.5788 16.6959 52.5126 16.6371L52.1805 17.0109C52.3783 17.1867 52.6563 17.25 52.9625 17.25V16.75ZM52.5334 16.6579C52.4746 16.5918 52.4205 16.4591 52.4205 16.208H51.9205C51.9205 16.5142 51.9838 16.7922 52.1597 16.9901L52.5334 16.6579ZM52.4205 16.208V1.952H51.9205V16.208H52.4205ZM52.4205 1.952C52.4205 1.69719 52.4762 1.58195 52.5233 1.53478L52.1698 1.18122C51.9823 1.36872 51.9205 1.64948 51.9205 1.952H52.4205ZM52.5233 1.53478C52.5897 1.46843 52.7178 1.41 52.9625 1.41V0.91C52.6499 0.91 52.3674 0.983572 52.1698 1.18122L52.5233 1.53478ZM52.9625 1.41H63.1705V0.91H52.9625V1.41ZM63.1705 1.41C63.4185 1.41 63.5294 1.46976 63.5777 1.52409L63.9514 1.19191C63.765 0.982241 63.4799 0.91 63.1705 0.91V1.41ZM63.5984 1.54485C63.6528 1.59315 63.7125 1.70405 63.7125 1.952H64.2125C64.2125 1.64261 64.1403 1.35752 63.9306 1.17115L63.5984 1.54485ZM63.7125 1.952V4.526H64.2125V1.952H63.7125ZM63.7125 4.526C63.7125 4.77071 63.6541 4.89887 63.5878 4.96522L63.9413 5.31878C64.139 5.12113 64.2125 4.83862 64.2125 4.526H63.7125ZM63.5878 4.96522C63.5406 5.01239 63.4254 5.068 63.1705 5.068V5.568C63.4731 5.568 63.7538 5.50627 63.9413 5.31878L63.5878 4.96522ZM63.1705 5.068H57.0985V5.568H63.1705V5.068ZM56.8485 5.318V7.012H57.3485V5.318H56.8485ZM57.0985 7.262H61.3885V6.762H57.0985V7.262ZM61.3885 7.262C61.6365 7.262 61.7474 7.32176 61.7957 7.37609L62.1694 7.04391C61.983 6.83424 61.6979 6.762 61.3885 6.762V7.262ZM61.8165 7.39685C61.8708 7.44515 61.9305 7.55605 61.9305 7.804H62.4305C62.4305 7.49461 62.3583 7.20952 62.1486 7.02315L61.8165 7.39685ZM61.9305 7.804V10.158H62.4305V7.804H61.9305ZM61.9305 10.158C61.9305 10.4027 61.8721 10.5309 61.8058 10.5972L62.1593 10.9508C62.357 10.7531 62.4305 10.4706 62.4305 10.158H61.9305ZM61.8058 10.5972C61.7586 10.6444 61.6434 10.7 61.3885 10.7V11.2C61.6911 11.2 61.9718 11.1383 62.1593 10.9508L61.8058 10.5972ZM61.3885 10.7H57.0985V11.2H61.3885V10.7ZM56.8485 10.95V12.842H57.3485V10.95H56.8485ZM57.0985 13.092H63.1705V12.592H57.0985V13.092ZM63.1705 13.092C63.4185 13.092 63.5294 13.1518 63.5777 13.2061L63.9514 12.8739C63.765 12.6642 63.4799 12.592 63.1705 12.592V13.092ZM63.5984 13.2269C63.6528 13.2751 63.7125 13.3861 63.7125 13.634H64.2125C64.2125 13.3246 64.1403 13.0395 63.9306 12.8531L63.5984 13.2269ZM63.7125 13.634V16.208H64.2125V13.634H63.7125ZM63.7125 16.208C63.7125 16.4527 63.6541 16.5809 63.5878 16.6472L63.9413 17.0008C64.139 16.8031 64.2125 16.5206 64.2125 16.208H63.7125ZM63.5878 16.6472C63.5406 16.6944 63.4254 16.75 63.1705 16.75V17.25C63.4731 17.25 63.7538 17.1883 63.9413 17.0008L63.5878 16.6472ZM68.3251 16.824L68.1382 16.9901L68.148 17.0011L68.159 17.0109L68.3251 16.824ZM68.3251 13.04L68.5018 13.2168L68.3251 13.04ZM75.2771 12.666L75.0797 12.5125L75.0771 12.516L75.2771 12.666ZM75.2771 11.654L75.0771 11.804L75.0827 11.8115L75.0889 11.8186L75.2771 11.654ZM74.8591 11.456L74.8244 11.7036L74.8321 11.7047L74.8399 11.7053L74.8591 11.456ZM71.5591 10.994L71.5237 11.2415L71.5244 11.2416L71.5591 10.994ZM69.0731 9.982L68.9104 10.1718L68.9126 10.1737L69.0731 9.982ZM69.3591 2.172L69.5174 2.3655L69.5195 2.36377L69.3591 2.172ZM79.4571 1.358L79.2702 1.52409L79.28 1.53508L79.291 1.54485L79.4571 1.358ZM73.2971 5.56L73.4852 5.72462L73.49 5.71919L73.4944 5.71348L73.2971 5.56ZM73.7371 6.726L73.7703 6.47822L73.7633 6.47728L73.7562 6.47674L73.7371 6.726ZM77.0151 7.166L77.0504 6.9185L77.0483 6.91822L77.0151 7.166ZM79.5011 8.178L79.6616 7.98631L79.5011 8.178ZM79.2151 16.01L79.3734 16.2035L79.3737 16.2032L79.2151 16.01ZM75.8931 16.75H68.9411V17.25H75.8931V16.75ZM68.9411 16.75C68.69 16.75 68.5573 16.6959 68.4912 16.6371L68.159 17.0109C68.3568 17.1867 68.6348 17.25 68.9411 17.25V16.75ZM68.5119 16.6579C68.4531 16.5918 68.3991 16.4591 68.3991 16.208H67.8991C67.8991 16.5142 67.9623 16.7922 68.1382 16.9901L68.5119 16.6579ZM68.3991 16.208V13.634H67.8991V16.208H68.3991ZM68.3991 13.634C68.3991 13.3792 68.4547 13.2639 68.5018 13.2168L68.1483 12.8632C67.9608 13.0507 67.8991 13.3315 67.8991 13.634H68.3991ZM68.5018 13.2168C68.5682 13.1504 68.6964 13.092 68.9411 13.092V12.592C68.6284 12.592 68.3459 12.6656 68.1483 12.8632L68.5018 13.2168ZM68.9411 13.092H74.8591V12.592H68.9411V13.092ZM74.8591 13.092C75.1026 13.092 75.3283 13.0144 75.4771 12.816L75.0771 12.516C75.0499 12.5522 74.9969 12.592 74.8591 12.592V13.092ZM75.4744 12.8195C75.6131 12.6412 75.6811 12.4325 75.6811 12.204H75.1811C75.1811 12.3275 75.1464 12.4268 75.0797 12.5125L75.4744 12.8195ZM75.6811 12.204C75.6811 11.9284 75.6257 11.6727 75.4652 11.4894L75.0889 11.8186C75.1338 11.8699 75.1811 11.981 75.1811 12.204H75.6811ZM75.4771 11.504C75.3337 11.3128 75.1175 11.2251 74.8782 11.2067L74.8399 11.7053C74.982 11.7162 75.0445 11.7605 75.0771 11.804L75.4771 11.504ZM74.8937 11.2084L71.5937 10.7464L71.5244 11.2416L74.8244 11.7036L74.8937 11.2084ZM71.5944 10.7465C70.6019 10.6047 69.8203 10.2815 69.2336 9.79031L68.9126 10.1737C69.5872 10.7385 70.4629 11.0899 71.5237 11.2415L71.5944 10.7465ZM69.2358 9.79218C68.6987 9.33188 68.3991 8.53916 68.3991 7.342H67.8991C67.8991 8.60884 68.2154 9.57612 68.9104 10.1718L69.2358 9.79218ZM68.3991 7.342V5.032H67.8991V7.342H68.3991ZM68.3991 5.032C68.3991 3.84402 68.7803 2.96857 69.5174 2.36549L69.2008 1.97851C68.3245 2.69543 67.8991 3.72664 67.8991 5.032H68.3991ZM69.5195 2.36377C70.2675 1.73816 71.3183 1.41 72.7031 1.41V0.91C71.2425 0.91 70.064 1.2565 69.1987 1.98023L69.5195 2.36377ZM72.7031 1.41H78.8631V0.91H72.7031V1.41ZM78.8631 1.41C79.111 1.41 79.2219 1.46976 79.2702 1.52409L79.6439 1.19191C79.4576 0.982241 79.1725 0.91 78.8631 0.91V1.41ZM79.291 1.54485C79.3453 1.59315 79.4051 1.70405 79.4051 1.952H79.9051C79.9051 1.64261 79.8328 1.35752 79.6232 1.17115L79.291 1.54485ZM79.4051 1.952V4.57H79.9051V1.952H79.4051ZM79.4051 4.57C79.4051 4.81471 79.3466 4.94287 79.2803 5.00922L79.6339 5.36278C79.8315 5.16513 79.9051 4.88262 79.9051 4.57H79.4051ZM79.2803 5.00922C79.2331 5.05639 79.1179 5.112 78.8631 5.112V5.612C79.1656 5.612 79.4464 5.55027 79.6339 5.36278L79.2803 5.00922ZM78.8631 5.112H73.7371V5.612H78.8631V5.112ZM73.7371 5.112C73.4815 5.112 73.2568 5.20455 73.0997 5.40651L73.4944 5.71348C73.5427 5.65145 73.6113 5.612 73.7371 5.612V5.112ZM73.1089 5.39537C72.958 5.56787 72.8931 5.78486 72.8931 6.022H73.3931C73.3931 5.87781 73.4308 5.7868 73.4852 5.72462L73.1089 5.39537ZM72.8931 6.022C72.8931 6.26008 72.9582 6.47756 73.0997 6.65948L73.4944 6.35251C73.4306 6.27044 73.3931 6.16525 73.3931 6.022H72.8931ZM73.0997 6.65948C73.252 6.85532 73.4681 6.95605 73.7179 6.97526L73.7562 6.47674C73.6247 6.46662 73.5474 6.42068 73.4944 6.35251L73.0997 6.65948ZM73.7038 6.97378L76.9818 7.41378L77.0483 6.91822L73.7703 6.47822L73.7038 6.97378ZM76.9797 7.41349C77.9722 7.55527 78.7538 7.87847 79.3406 8.36969L79.6616 7.98631C78.987 7.42153 78.1113 7.07006 77.0504 6.91851L76.9797 7.41349ZM79.3406 8.36969C79.891 8.83048 80.1971 9.62251 80.1971 10.818H80.6971C80.6971 9.54949 80.3725 8.58152 79.6616 7.98631L79.3406 8.36969ZM80.1971 10.818V13.128H80.6971V10.818H80.1971ZM80.1971 13.128C80.1971 14.3143 79.8096 15.1981 79.0564 15.8168L79.3737 16.2032C80.2632 15.4726 80.6971 14.4351 80.6971 13.128H80.1971ZM79.0568 15.8165C78.3083 16.4289 77.2636 16.75 75.8931 16.75V17.25C77.3385 17.25 78.5086 16.9111 79.3734 16.2035L79.0568 15.8165ZM87.9188 16.824L87.732 16.9901L87.7417 17.0011L87.7527 17.0109L87.9188 16.824ZM87.7428 5.406H87.9928V5.156H87.7428V5.406ZM83.8928 5.23L83.706 5.39609L83.7157 5.40708L83.7267 5.41685L83.8928 5.23ZM83.8928 1.358L83.716 1.18122L83.8928 1.358ZM96.7188 1.358L96.532 1.52409L96.5417 1.53508L96.5527 1.54485L96.7188 1.358ZM92.8908 5.406V5.156H92.6408V5.406H92.8908ZM92.6928 16.824L92.5161 16.6472L92.6928 16.824ZM92.0988 16.75H88.5348V17.25H92.0988V16.75ZM88.5348 16.75C88.2837 16.75 88.1511 16.6959 88.0849 16.6371L87.7527 17.0109C87.9506 17.1867 88.2286 17.25 88.5348 17.25V16.75ZM88.1057 16.6579C88.0469 16.5918 87.9928 16.4591 87.9928 16.208H87.4928C87.4928 16.5142 87.5561 16.7922 87.732 16.9901L88.1057 16.6579ZM87.9928 16.208V5.406H87.4928V16.208H87.9928ZM87.7428 5.156H84.5088V5.656H87.7428V5.156ZM84.5088 5.156C84.2577 5.156 84.1251 5.10193 84.0589 5.04315L83.7267 5.41685C83.9246 5.59273 84.2026 5.656 84.5088 5.656V5.156ZM84.0797 5.06391C84.0209 4.99777 83.9668 4.86511 83.9668 4.614H83.4668C83.4668 4.92022 83.5301 5.19823 83.706 5.39609L84.0797 5.06391ZM83.9668 4.614V1.952H83.4668V4.614H83.9668ZM83.9668 1.952C83.9668 1.69719 84.0224 1.58195 84.0696 1.53478L83.716 1.18122C83.5286 1.36872 83.4668 1.64948 83.4668 1.952H83.9668ZM84.0696 1.53478C84.136 1.46843 84.2641 1.41 84.5088 1.41V0.91C84.1962 0.91 83.9137 0.983572 83.716 1.18122L84.0696 1.53478ZM84.5088 1.41H96.1248V0.91H84.5088V1.41ZM96.1248 1.41C96.3728 1.41 96.4837 1.46976 96.532 1.52409L96.9057 1.19191C96.7193 0.982241 96.4342 0.91 96.1248 0.91V1.41ZM96.5527 1.54485C96.6071 1.59315 96.6668 1.70405 96.6668 1.952H97.1668C97.1668 1.64261 97.0946 1.35752 96.8849 1.17115L96.5527 1.54485ZM96.6668 1.952V4.614H97.1668V1.952H96.6668ZM96.6668 4.614C96.6668 4.85871 96.6084 4.98687 96.5421 5.05322L96.8956 5.40678C97.0933 5.20913 97.1668 4.92662 97.1668 4.614H96.6668ZM96.5421 5.05322C96.4949 5.10039 96.3796 5.156 96.1248 5.156V5.656C96.4274 5.656 96.7081 5.59427 96.8956 5.40678L96.5421 5.05322ZM96.1248 5.156H92.8908V5.656H96.1248V5.156ZM92.6408 5.406V16.208H93.1408V5.406H92.6408ZM92.6408 16.208C92.6408 16.4527 92.5824 16.5809 92.5161 16.6472L92.8696 17.0008C93.0673 16.8031 93.1408 16.5206 93.1408 16.208H92.6408ZM92.5161 16.6472C92.4689 16.6944 92.3536 16.75 92.0988 16.75V17.25C92.4014 17.25 92.6821 17.1883 92.8696 17.0008L92.5161 16.6472ZM106.008 5.12V4.87H105.758V5.12H106.008ZM106.008 7.936H105.758V8.186H106.008V7.936ZM108.428 7.65L108.634 7.79239L108.639 7.78519L108.428 7.65ZM108.428 5.428L108.218 5.56327L108.223 5.5703L108.428 5.428ZM101.212 16.824L101.025 16.9901L101.035 17.0011L101.046 17.0109L101.212 16.824ZM101.212 1.358L101.036 1.18122L101.212 1.358ZM112.542 2.194L112.356 2.36062L112.36 2.36472L112.542 2.194ZM113.202 7.43L112.973 7.33058L112.971 7.33441L113.202 7.43ZM112.256 8.354L112.16 8.12345L111.271 8.49607L112.229 8.60247L112.256 8.354ZM114.17 9.322L113.982 9.48594L113.984 9.4887L114.17 9.322ZM114.72 16.824L114.897 17.0008L114.72 16.824ZM110.1 16.824L109.913 16.9901L109.923 17.0011L109.934 17.0109L110.1 16.824ZM109.726 12.138L109.524 12.285L109.532 12.2956L109.54 12.3052L109.726 12.138ZM106.008 11.896V11.646H105.758V11.896H106.008ZM105.81 16.824L105.634 16.6472L105.81 16.824ZM105.758 5.12V7.936H106.258V5.12H105.758ZM106.008 8.186H107.658V7.686H106.008V8.186ZM107.658 8.186C108.068 8.186 108.431 8.08485 108.634 7.7923L108.223 7.5077C108.161 7.59648 108.011 7.686 107.658 7.686V8.186ZM108.639 7.78519C108.801 7.53203 108.876 7.2335 108.876 6.902H108.376C108.376 7.15717 108.319 7.3573 108.218 7.51481L108.639 7.78519ZM108.876 6.902V6.154H108.376V6.902H108.876ZM108.876 6.154C108.876 5.82331 108.802 5.52804 108.634 5.2857L108.223 5.5703C108.319 5.70929 108.376 5.89802 108.376 6.154H108.876ZM108.639 5.29281C108.439 4.98208 108.075 4.87 107.658 4.87V5.37C108.005 5.37 108.154 5.46325 108.218 5.56319L108.639 5.29281ZM107.658 4.87H106.008V5.37H107.658V4.87ZM105.216 16.75H101.828V17.25H105.216V16.75ZM101.828 16.75C101.577 16.75 101.445 16.6959 101.378 16.6371L101.046 17.0109C101.244 17.1867 101.522 17.25 101.828 17.25V16.75ZM101.399 16.6579C101.34 16.5918 101.286 16.4591 101.286 16.208H100.786C100.786 16.5142 100.85 16.7922 101.025 16.9901L101.399 16.6579ZM101.286 16.208V1.952H100.786V16.208H101.286ZM101.286 1.952C101.286 1.69719 101.342 1.58195 101.389 1.53478L101.036 1.18122C100.848 1.36872 100.786 1.64948 100.786 1.952H101.286ZM101.389 1.53478C101.455 1.46843 101.584 1.41 101.828 1.41V0.91C101.516 0.91 101.233 0.983572 101.036 1.18122L101.389 1.53478ZM101.828 1.41H109.154V0.91H101.828V1.41ZM109.154 1.41C110.777 1.41 111.813 1.75344 112.356 2.36058L112.729 2.02742C112.039 1.2559 110.816 0.91 109.154 0.91V1.41ZM112.36 2.36472C112.94 2.9851 113.238 3.80021 113.238 4.834H113.738C113.738 3.69712 113.406 2.75223 112.725 2.02328L112.36 2.36472ZM113.238 4.834V5.846H113.738V4.834H113.238ZM113.238 5.846C113.238 6.43714 113.147 6.92954 112.973 7.3306L113.432 7.5294C113.639 7.05046 113.738 6.48686 113.738 5.846H113.238ZM112.971 7.33441C112.822 7.69417 112.558 7.95629 112.16 8.12345L112.353 8.58455C112.864 8.37038 113.23 8.01649 113.433 7.52559L112.971 7.33441ZM112.229 8.60247C112.964 8.68414 113.542 8.97998 113.982 9.48592L114.359 9.15808C113.83 8.54936 113.133 8.19986 112.284 8.10553L112.229 8.60247ZM113.984 9.4887C114.433 9.99006 114.668 10.6664 114.668 11.544H115.168C115.168 10.5736 114.905 9.76861 114.357 9.1553L113.984 9.4887ZM114.668 11.544V16.208H115.168V11.544H114.668ZM114.668 16.208C114.668 16.4527 114.61 16.5809 114.544 16.6472L114.897 17.0008C115.095 16.8031 115.168 16.5206 115.168 16.208H114.668ZM114.544 16.6472C114.496 16.6944 114.381 16.75 114.126 16.75V17.25C114.429 17.25 114.71 17.1883 114.897 17.0008L114.544 16.6472ZM114.126 16.75H110.716V17.25H114.126V16.75ZM110.716 16.75C110.465 16.75 110.333 16.6959 110.266 16.6371L109.934 17.0109C110.132 17.1867 110.41 17.25 110.716 17.25V16.75ZM110.287 16.6579C110.228 16.5918 110.174 16.4591 110.174 16.208H109.674C109.674 16.5142 109.738 16.7922 109.913 16.9901L110.287 16.6579ZM110.174 16.208V12.842H109.674V16.208H110.174ZM110.174 12.842C110.174 12.4944 110.105 12.1848 109.912 11.9708L109.54 12.3052C109.612 12.3845 109.674 12.5443 109.674 12.842H110.174ZM109.928 11.991C109.743 11.7357 109.431 11.646 109.088 11.646V12.146C109.361 12.146 109.475 12.2177 109.524 12.285L109.928 11.991ZM109.088 11.646H106.008V12.146H109.088V11.646ZM105.758 11.896V16.208H106.258V11.896H105.758ZM105.758 16.208C105.758 16.4527 105.7 16.5809 105.634 16.6472L105.987 17.0008C106.185 16.8031 106.258 16.5206 106.258 16.208H105.758ZM105.634 16.6472C105.586 16.6944 105.471 16.75 105.216 16.75V17.25C105.519 17.25 105.8 17.1883 105.987 17.0008L105.634 16.6472ZM125.108 5.78L124.879 5.67846L124.873 5.692L124.869 5.70615L125.108 5.78ZM124.074 9.124L123.835 9.05015L123.735 9.374H124.074V9.124ZM127.528 9.124V9.374H127.867L127.767 9.05015L127.528 9.124ZM126.494 5.78L126.733 5.70615L126.728 5.692L126.722 5.67846L126.494 5.78ZM126.296 5.494L126.119 5.67078L126.129 5.68057L126.14 5.68922L126.296 5.494ZM125.284 5.494L125.128 5.29878L125.117 5.30743L125.107 5.31722L125.284 5.494ZM123.656 16.824L123.479 16.6472L123.656 16.824ZM119.212 16.824L119.025 16.9901L119.035 17.0011L119.046 17.0109L119.212 16.824ZM119.234 8.882L118.992 8.81989L118.99 8.82578L119.234 8.882ZM119.894 6.88L120.127 6.96974L120.127 6.96947L119.894 6.88ZM121.808 1.886L122.041 1.9755L122.044 1.9692L121.808 1.886ZM122.204 1.336L122.073 1.12294L122.065 1.12799L122.204 1.336ZM129.53 1.336L129.391 1.54415L129.399 1.54891L129.53 1.336ZM129.948 1.886L129.712 1.96923L129.714 1.97547L129.948 1.886ZM131.862 6.88L131.628 6.96947L131.629 6.96974L131.862 6.88ZM132.5 8.882L132.256 8.93823L132.258 8.94409L132.5 8.882ZM132.522 16.824L132.699 17.0008L132.522 16.824ZM127.946 16.824L127.769 17.0008L127.779 17.0106L127.79 17.0192L127.946 16.824ZM127.748 13.128H127.998V12.878H127.748V13.128ZM123.854 13.128V12.878H123.604V13.128H123.854ZM124.869 5.70615L123.835 9.05015L124.313 9.19785L125.347 5.85385L124.869 5.70615ZM124.074 9.374H127.528V8.874H124.074V9.374ZM127.767 9.05015L126.733 5.70615L126.255 5.85385L127.289 9.19785L127.767 9.05015ZM126.722 5.67846C126.655 5.52778 126.569 5.39232 126.452 5.29878L126.14 5.68922C126.169 5.71301 126.215 5.76821 126.265 5.88153L126.722 5.67846ZM126.473 5.31722C126.364 5.20861 126.226 5.156 126.076 5.156V5.656C126.102 5.656 126.11 5.66206 126.119 5.67078L126.473 5.31722ZM126.076 5.156H125.526V5.656H126.076V5.156ZM125.526 5.156C125.377 5.156 125.242 5.20721 125.128 5.29878L125.44 5.68922C125.472 5.66346 125.499 5.656 125.526 5.656V5.156ZM125.107 5.31722C125.016 5.40798 124.943 5.53605 124.879 5.67846L125.336 5.88153C125.39 5.75994 125.434 5.69735 125.461 5.67078L125.107 5.31722ZM123.604 16.208C123.604 16.4527 123.546 16.5809 123.479 16.6472L123.833 17.0008C124.03 16.8031 124.104 16.5206 124.104 16.208H123.604ZM123.479 16.6472C123.432 16.6944 123.317 16.75 123.062 16.75V17.25C123.364 17.25 123.645 17.1883 123.833 17.0008L123.479 16.6472ZM123.062 16.75H119.828V17.25H123.062V16.75ZM119.828 16.75C119.577 16.75 119.444 16.6959 119.378 16.6371L119.046 17.0109C119.244 17.1867 119.522 17.25 119.828 17.25V16.75ZM119.399 16.6579C119.34 16.5918 119.286 16.4591 119.286 16.208H118.786C118.786 16.5142 118.849 16.7922 119.025 16.9901L119.399 16.6579ZM119.286 16.208V10.4H118.786V16.208H119.286ZM119.286 10.4C119.286 9.984 119.348 9.49749 119.478 8.93822L118.99 8.82578C118.855 9.41051 118.786 9.936 118.786 10.4H119.286ZM119.476 8.94409C119.62 8.38426 119.836 7.72652 120.127 6.96974L119.661 6.79025C119.365 7.55881 119.142 8.23574 118.992 8.81991L119.476 8.94409ZM120.127 6.96947L122.041 1.97547L121.574 1.79653L119.66 6.79053L120.127 6.96947ZM122.044 1.9692C122.118 1.75793 122.222 1.62453 122.343 1.54401L122.065 1.12799C121.834 1.28214 121.674 1.5154 121.572 1.80279L122.044 1.9692ZM122.335 1.54891C122.476 1.46226 122.669 1.41 122.93 1.41V0.91C122.604 0.91 122.313 0.975071 122.073 1.12309L122.335 1.54891ZM122.93 1.41H128.848V0.91H122.93V1.41ZM128.848 1.41C129.093 1.41 129.268 1.46151 129.391 1.54401L129.669 1.12799C129.44 0.975819 129.161 0.91 128.848 0.91V1.41ZM129.399 1.54891C129.532 1.63105 129.64 1.76363 129.712 1.9692L130.184 1.8028C130.08 1.5097 129.909 1.27561 129.661 1.12309L129.399 1.54891ZM129.714 1.97547L131.628 6.96947L132.095 6.79053L130.181 1.79653L129.714 1.97547ZM131.629 6.96974C131.919 7.72538 132.128 8.38106 132.256 8.93822L132.744 8.82578C132.608 8.23894 132.391 7.55996 132.095 6.79025L131.629 6.96974ZM132.258 8.94409C132.401 9.50224 132.47 9.98668 132.47 10.4H132.97C132.97 9.93332 132.892 9.40576 132.742 8.81991L132.258 8.94409ZM132.47 10.4V16.208H132.97V10.4H132.47ZM132.47 16.208C132.47 16.4527 132.411 16.5809 132.345 16.6472L132.699 17.0008C132.896 16.8031 132.97 16.5206 132.97 16.208H132.47ZM132.345 16.6472C132.298 16.6944 132.183 16.75 131.928 16.75V17.25C132.23 17.25 132.511 17.1883 132.699 17.0008L132.345 16.6472ZM131.928 16.75H128.606V17.25H131.928V16.75ZM128.606 16.75C128.339 16.75 128.186 16.6956 128.102 16.6288L127.79 17.0192C128 17.1871 128.286 17.25 128.606 17.25V16.75ZM128.123 16.6472C128.056 16.5809 127.998 16.4527 127.998 16.208H127.498C127.498 16.5206 127.572 16.8031 127.769 17.0008L128.123 16.6472ZM127.998 16.208V13.128H127.498V16.208H127.998ZM127.748 12.878H123.854V13.378H127.748V12.878ZM123.604 13.128V16.208H124.104V13.128H123.604ZM139.835 16.824L139.649 16.9901L139.658 17.0011L139.669 17.0109L139.835 16.824ZM139.659 5.406H139.909V5.156H139.659V5.406ZM135.809 5.23L135.623 5.39609L135.632 5.40708L135.643 5.41685L135.809 5.23ZM135.809 1.358L135.633 1.18122L135.809 1.358ZM148.635 1.358L148.449 1.52409L148.458 1.53508L148.469 1.54485L148.635 1.358ZM144.807 5.406V5.156H144.557V5.406H144.807ZM144.609 16.824L144.433 16.6472L144.609 16.824ZM144.015 16.75H140.451V17.25H144.015V16.75ZM140.451 16.75C140.2 16.75 140.068 16.6959 140.001 16.6371L139.669 17.0109C139.867 17.1867 140.145 17.25 140.451 17.25V16.75ZM140.022 16.6579C139.963 16.5918 139.909 16.4591 139.909 16.208H139.409C139.409 16.5142 139.473 16.7922 139.649 16.9901L140.022 16.6579ZM139.909 16.208V5.406H139.409V16.208H139.909ZM139.659 5.156H136.425V5.656H139.659V5.156ZM136.425 5.156C136.174 5.156 136.042 5.10193 135.975 5.04315L135.643 5.41685C135.841 5.59273 136.119 5.656 136.425 5.656V5.156ZM135.996 5.06391C135.937 4.99777 135.883 4.86511 135.883 4.614H135.383C135.383 4.92022 135.447 5.19823 135.623 5.39609L135.996 5.06391ZM135.883 4.614V1.952H135.383V4.614H135.883ZM135.883 1.952C135.883 1.69719 135.939 1.58195 135.986 1.53478L135.633 1.18122C135.445 1.36872 135.383 1.64948 135.383 1.952H135.883ZM135.986 1.53478C136.053 1.46843 136.181 1.41 136.425 1.41V0.91C136.113 0.91 135.83 0.983572 135.633 1.18122L135.986 1.53478ZM136.425 1.41H148.041V0.91H136.425V1.41ZM148.041 1.41C148.289 1.41 148.4 1.46976 148.449 1.52409L148.822 1.19191C148.636 0.982241 148.351 0.91 148.041 0.91V1.41ZM148.469 1.54485C148.524 1.59315 148.583 1.70405 148.583 1.952H149.083C149.083 1.64261 149.011 1.35752 148.801 1.17115L148.469 1.54485ZM148.583 1.952V4.614H149.083V1.952H148.583ZM148.583 4.614C148.583 4.85871 148.525 4.98687 148.459 5.05322L148.812 5.40678C149.01 5.20913 149.083 4.92662 149.083 4.614H148.583ZM148.459 5.05322C148.411 5.10039 148.296 5.156 148.041 5.156V5.656C148.344 5.656 148.625 5.59427 148.812 5.40678L148.459 5.05322ZM148.041 5.156H144.807V5.656H148.041V5.156ZM144.557 5.406V16.208H145.057V5.406H144.557ZM144.557 16.208C144.557 16.4527 144.499 16.5809 144.433 16.6472L144.786 17.0008C144.984 16.8031 145.057 16.5206 145.057 16.208H144.557ZM144.433 16.6472C144.385 16.6944 144.27 16.75 144.015 16.75V17.25C144.318 17.25 144.599 17.1883 144.786 17.0008L144.433 16.6472ZM152.777 16.824L152.59 16.9901L152.6 17.0011L152.611 17.0109L152.777 16.824ZM152.777 12.996L152.954 13.1728L152.777 12.996ZM155.571 12.798V13.048H155.821V12.798H155.571ZM155.571 5.406H155.821V5.156H155.571V5.406ZM152.777 5.23L152.59 5.39609L152.6 5.40708L152.611 5.41685L152.777 5.23ZM152.777 1.358L152.6 1.18122L152.777 1.358ZM163.359 1.358L163.172 1.52409L163.182 1.53508L163.193 1.54485L163.359 1.358ZM163.359 5.23L163.536 5.40678L163.359 5.23ZM160.631 5.406V5.156H160.381V5.406H160.631ZM160.631 12.798H160.381V13.048H160.631V12.798ZM163.359 12.996L163.172 13.1621L163.182 13.1731L163.193 13.1829L163.359 12.996ZM163.359 16.824L163.536 17.0008V17.0008L163.359 16.824ZM153.393 16.75C153.142 16.75 153.009 16.6959 152.943 16.6371L152.611 17.0109C152.809 17.1867 153.087 17.25 153.393 17.25V16.75ZM152.964 16.6579C152.905 16.5918 152.851 16.4591 152.851 16.208H152.351C152.351 16.5142 152.414 16.7922 152.59 16.9901L152.964 16.6579ZM152.851 16.208V13.59H152.351V16.208H152.851ZM152.851 13.59C152.851 13.3352 152.906 13.2199 152.954 13.1728L152.6 12.8192C152.413 13.0067 152.351 13.2875 152.351 13.59H152.851ZM152.954 13.1728C153.02 13.1064 153.148 13.048 153.393 13.048V12.548C153.08 12.548 152.798 12.6216 152.6 12.8192L152.954 13.1728ZM153.393 13.048H155.571V12.548H153.393V13.048ZM155.821 12.798V5.406H155.321V12.798H155.821ZM155.571 5.156H153.393V5.656H155.571V5.156ZM153.393 5.156C153.142 5.156 153.009 5.10193 152.943 5.04315L152.611 5.41685C152.809 5.59273 153.087 5.656 153.393 5.656V5.156ZM152.964 5.06391C152.905 4.99777 152.851 4.86511 152.851 4.614H152.351C152.351 4.92022 152.414 5.19823 152.59 5.39609L152.964 5.06391ZM152.851 4.614V1.952H152.351V4.614H152.851ZM152.851 1.952C152.851 1.69719 152.906 1.58195 152.954 1.53478L152.6 1.18122C152.413 1.36872 152.351 1.64948 152.351 1.952H152.851ZM152.954 1.53478C153.02 1.46843 153.148 1.41 153.393 1.41V0.91C153.08 0.91 152.798 0.983572 152.6 1.18122L152.954 1.53478ZM153.393 1.41H162.765V0.91H153.393V1.41ZM162.765 1.41C163.013 1.41 163.124 1.46976 163.172 1.52409L163.546 1.19191C163.359 0.982241 163.074 0.91 162.765 0.91V1.41ZM163.193 1.54485C163.247 1.59315 163.307 1.70405 163.307 1.952H163.807C163.807 1.64261 163.735 1.35752 163.525 1.17115L163.193 1.54485ZM163.307 1.952V4.614H163.807V1.952H163.307ZM163.307 4.614C163.307 4.85871 163.248 4.98687 163.182 5.05322L163.536 5.40678C163.733 5.20913 163.807 4.92662 163.807 4.614H163.307ZM163.182 5.05322C163.135 5.10039 163.02 5.156 162.765 5.156V5.656C163.067 5.656 163.348 5.59427 163.536 5.40678L163.182 5.05322ZM162.765 5.156H160.631V5.656H162.765V5.156ZM160.381 5.406V12.798H160.881V5.406H160.381ZM160.631 13.048H162.765V12.548H160.631V13.048ZM162.765 13.048C163.013 13.048 163.124 13.1078 163.172 13.1621L163.546 12.8299C163.359 12.6202 163.074 12.548 162.765 12.548V13.048ZM163.193 13.1829C163.247 13.2311 163.307 13.3421 163.307 13.59H163.807C163.807 13.2806 163.735 12.9955 163.525 12.8091L163.193 13.1829ZM163.307 13.59V16.208H163.807V13.59H163.307ZM163.307 16.208C163.307 16.4527 163.248 16.5809 163.182 16.6472L163.536 17.0008C163.733 16.8031 163.807 16.5206 163.807 16.208H163.307ZM163.182 16.6472C163.135 16.6944 163.02 16.75 162.765 16.75V17.25C163.067 17.25 163.348 17.1883 163.536 17.0008L163.182 16.6472ZM162.765 16.75H153.393V17.25H162.765V16.75ZM181.365 14.69L181.131 14.6036L181.129 14.6071L181.365 14.69ZM180.309 16.098L180.461 16.2966L180.462 16.2959L180.309 16.098ZM178.219 17L178.16 16.7572L178.159 16.7575L178.219 17ZM171.465 17L171.406 17.2428L171.465 17ZM169.353 16.098L169.198 16.2939L169.204 16.2987L169.353 16.098ZM168.297 14.69L168.061 14.771L168.063 14.7785L168.297 14.69ZM168.297 3.514L168.063 3.42756L168.061 3.43113L168.297 3.514ZM169.353 2.084L169.2 1.88603L169.198 1.88822L169.353 2.084ZM171.465 1.16L171.406 0.917231L171.465 1.16ZM178.219 1.16L178.159 1.40254L178.16 1.40277L178.219 1.16ZM180.309 2.084L180.154 2.2798L180.156 2.28194L180.309 2.084ZM181.365 3.514L181.129 3.59496L181.131 3.60247L181.365 3.514ZM173.335 12.798L173.165 12.9809L173.171 12.9869L173.335 12.798ZM176.371 12.798L176.535 12.9871L176.542 12.9808L176.371 12.798ZM176.371 5.428L176.201 5.61089L176.207 5.61692L176.371 5.428ZM173.335 5.428L173.499 5.61705L173.506 5.61076L173.335 5.428ZM181.423 12.842C181.423 13.4911 181.324 14.0774 181.131 14.6036L181.6 14.7764C181.817 14.1879 181.923 13.5422 181.923 12.842H181.423ZM181.129 14.6071C180.957 15.0986 180.637 15.5297 180.156 15.9001L180.462 16.2959C181.008 15.8743 181.392 15.3668 181.601 14.7729L181.129 14.6071ZM180.157 15.8994C179.696 16.2524 179.035 16.5419 178.16 16.7572L178.279 17.2428C179.193 17.0181 179.925 16.7062 180.461 16.2966L180.157 15.8994ZM178.159 16.7575C177.306 16.9707 176.206 17.08 174.853 17.08V17.58C176.228 17.58 177.373 17.4693 178.28 17.2425L178.159 16.7575ZM174.853 17.08C173.501 17.08 172.393 16.9707 171.525 16.7572L171.406 17.2428C172.327 17.4693 173.478 17.58 174.853 17.58V17.08ZM171.525 16.7572C170.649 16.542 169.98 16.2521 169.502 15.8973L169.204 16.2987C169.753 16.7066 170.492 17.018 171.406 17.2428L171.525 16.7572ZM169.509 15.9022C169.042 15.5315 168.719 15.098 168.531 14.6015L168.063 14.7785C168.286 15.3674 168.667 15.8725 169.198 16.2938L169.509 15.9022ZM168.534 14.6091C168.353 14.0813 168.261 13.4931 168.261 12.842H167.761C167.761 13.5403 167.86 14.1841 168.061 14.7709L168.534 14.6091ZM168.261 12.842V5.34H167.761V12.842H168.261ZM168.261 5.34C168.261 4.68878 168.353 4.10875 168.533 3.59687L168.061 3.43113C167.86 4.00458 167.761 4.64188 167.761 5.34H168.261ZM168.532 3.60043C168.72 3.08922 169.043 2.64941 169.509 2.27978L169.198 1.88822C168.666 2.31059 168.285 2.82411 168.063 3.42757L168.532 3.60043ZM169.506 2.28194C169.983 1.91416 170.651 1.6177 171.525 1.40277L171.406 0.917231C170.49 1.1423 169.75 1.46184 169.201 1.88605L169.506 2.28194ZM171.525 1.40277C172.393 1.18927 173.501 1.08 174.853 1.08V0.58C173.478 0.58 172.327 0.690729 171.406 0.917231L171.525 1.40277ZM174.853 1.08C176.206 1.08 177.306 1.18931 178.159 1.40253L178.28 0.917463C177.373 0.690693 176.228 0.58 174.853 0.58V1.08ZM178.16 1.40277C179.034 1.61772 179.693 1.91383 180.154 2.27978L180.465 1.88822C179.928 1.46217 179.194 1.14228 178.279 0.917231L178.16 1.40277ZM180.156 2.28194C180.635 2.65114 180.955 3.0886 181.129 3.59492L181.602 3.43308C181.394 2.82473 181.01 2.30886 180.462 1.88605L180.156 2.28194ZM181.131 3.60247C181.324 4.11267 181.423 4.69072 181.423 5.34H181.923C181.923 4.63995 181.817 4.00066 181.599 3.42553L181.131 3.60247ZM181.423 5.34V12.842H181.923V5.34H181.423ZM172.755 12.05C172.755 12.4146 172.895 12.7295 173.165 12.9808L173.506 12.6152C173.335 12.4558 173.255 12.272 173.255 12.05H172.755ZM173.171 12.9869C173.332 13.1258 173.566 13.2078 173.833 13.2582C174.107 13.3098 174.449 13.334 174.853 13.334V12.834C174.465 12.834 174.158 12.8105 173.926 12.7668C173.688 12.7219 173.559 12.6609 173.499 12.6091L173.171 12.9869ZM174.853 13.334C175.257 13.334 175.599 13.3098 175.873 13.2582C176.141 13.2078 176.375 13.1258 176.535 12.9869L176.207 12.6091C176.148 12.6609 176.019 12.7219 175.78 12.7668C175.548 12.8105 175.241 12.834 174.853 12.834V13.334ZM176.542 12.9808C176.811 12.7295 176.951 12.4146 176.951 12.05H176.451C176.451 12.272 176.371 12.4558 176.201 12.6152L176.542 12.9808ZM176.951 12.05V6.132H176.451V12.05H176.951ZM176.951 6.132C176.951 5.77721 176.807 5.47481 176.535 5.23908L176.207 5.61692C176.375 5.76253 176.451 5.92945 176.451 6.132H176.951ZM176.542 5.24524C176.382 5.09581 176.146 5.00672 175.876 4.95199C175.601 4.89608 175.258 4.87 174.853 4.87V5.37C175.24 5.37 175.547 5.39525 175.777 5.44201C176.013 5.48994 176.141 5.55485 176.201 5.61076L176.542 5.24524ZM174.853 4.87C174.448 4.87 174.106 4.89608 173.83 4.95199C173.56 5.00672 173.325 5.09581 173.165 5.24524L173.506 5.61076C173.566 5.55485 173.693 5.48994 173.929 5.44201C174.16 5.39525 174.466 5.37 174.853 5.37V4.87ZM173.171 5.23908C172.899 5.47481 172.755 5.77721 172.755 6.132H173.255C173.255 5.92945 173.331 5.76253 173.499 5.61692L173.171 5.23908ZM172.755 6.132V12.05H173.255V6.132H172.755ZM186.63 16.824L186.443 16.9901L186.453 17.0011L186.464 17.0109L186.63 16.824ZM186.63 1.358L186.453 1.18122L186.63 1.358ZM190.238 1.292L190.133 1.51908L190.139 1.52179L190.238 1.292ZM190.832 1.754L190.643 1.91773L190.644 1.9185L190.832 1.754ZM195.1 6.638L194.912 6.80251L195.35 7.30401V6.638H195.1ZM195.276 1.358L195.453 1.53478L195.276 1.358ZM199.786 1.358L199.599 1.52409L199.609 1.53508L199.62 1.54485L199.786 1.358ZM199.786 16.824L199.609 16.6472L199.786 16.824ZM195.276 16.824L195.089 16.9901L195.099 17.0011L195.11 17.0109L195.276 16.824ZM195.1 13.502H195.35V13.4121L195.293 13.3428L195.1 13.502ZM191.338 8.948L191.531 8.78878L191.088 8.25283V8.948H191.338ZM191.14 16.824L190.963 16.6472L191.14 16.824ZM190.546 16.75H187.246V17.25H190.546V16.75ZM187.246 16.75C186.995 16.75 186.862 16.6959 186.796 16.6371L186.464 17.0109C186.662 17.1867 186.94 17.25 187.246 17.25V16.75ZM186.817 16.6579C186.758 16.5918 186.704 16.4591 186.704 16.208H186.204C186.204 16.5142 186.267 16.7922 186.443 16.9901L186.817 16.6579ZM186.704 16.208V1.952H186.204V16.208H186.704ZM186.704 1.952C186.704 1.69719 186.76 1.58195 186.807 1.53478L186.453 1.18122C186.266 1.36872 186.204 1.64948 186.204 1.952H186.704ZM186.807 1.53478C186.873 1.46843 187.001 1.41 187.246 1.41V0.91C186.933 0.91 186.651 0.983572 186.453 1.18122L186.807 1.53478ZM187.246 1.41H189.534V0.91H187.246V1.41ZM189.534 1.41C189.788 1.41 189.984 1.45025 190.133 1.51899L190.343 1.06501C190.11 0.957748 189.837 0.91 189.534 0.91V1.41ZM190.139 1.52179C190.301 1.59109 190.47 1.71798 190.643 1.91773L191.021 1.59027C190.813 1.35002 190.585 1.16891 190.336 1.06221L190.139 1.52179ZM190.644 1.9185L194.912 6.80251L195.288 6.47349L191.02 1.58949L190.644 1.9185ZM195.35 6.638V1.952H194.85V6.638H195.35ZM195.35 1.952C195.35 1.69719 195.406 1.58195 195.453 1.53478L195.099 1.18122C194.912 1.36872 194.85 1.64948 194.85 1.952H195.35ZM195.453 1.53478C195.519 1.46843 195.647 1.41 195.892 1.41V0.91C195.579 0.91 195.297 0.983572 195.099 1.18122L195.453 1.53478ZM195.892 1.41H199.192V0.91H195.892V1.41ZM199.192 1.41C199.44 1.41 199.551 1.46976 199.599 1.52409L199.973 1.19191C199.786 0.982241 199.501 0.91 199.192 0.91V1.41ZM199.62 1.54485C199.674 1.59315 199.734 1.70405 199.734 1.952H200.234C200.234 1.64261 200.162 1.35752 199.952 1.17115L199.62 1.54485ZM199.734 1.952V16.208H200.234V1.952H199.734ZM199.734 16.208C199.734 16.4527 199.675 16.5809 199.609 16.6472L199.963 17.0008C200.16 16.8031 200.234 16.5206 200.234 16.208H199.734ZM199.609 16.6472C199.562 16.6944 199.447 16.75 199.192 16.75V17.25C199.494 17.25 199.775 17.1883 199.963 17.0008L199.609 16.6472ZM199.192 16.75H195.892V17.25H199.192V16.75ZM195.892 16.75C195.641 16.75 195.508 16.6959 195.442 16.6371L195.11 17.0109C195.308 17.1867 195.586 17.25 195.892 17.25V16.75ZM195.463 16.6579C195.404 16.5918 195.35 16.4591 195.35 16.208H194.85C194.85 16.5142 194.913 16.7922 195.089 16.9901L195.463 16.6579ZM195.35 16.208V13.502H194.85V16.208H195.35ZM195.293 13.3428L191.531 8.78878L191.145 9.10722L194.907 13.6612L195.293 13.3428ZM191.088 8.948V16.208H191.588V8.948H191.088ZM191.088 16.208C191.088 16.4527 191.029 16.5809 190.963 16.6472L191.317 17.0008C191.514 16.8031 191.588 16.5206 191.588 16.208H191.088ZM190.963 16.6472C190.916 16.6944 190.801 16.75 190.546 16.75V17.25C190.848 17.25 191.129 17.1883 191.317 17.0008L190.963 16.6472Z" fill="white"/>
</svg>
