<svg width="724" height="74" viewBox="0 0 724 74" fill="none" xmlns="http://www.w3.org/2000/svg">
<g filter="url(#filter0_d_471_3201)">
<path d="M47.2016 6.6H57.6316C58.5183 6.6 59.1483 6.81 59.5216 7.23C59.9416 7.60333 60.1516 8.23333 60.1516 9.12V36.28C60.1516 37.7733 60.0816 39.1733 59.9416 40.48C59.8483 41.74 59.4983 43.2333 58.8916 44.96L55.3916 54.48C55.1583 55.18 54.8083 55.7867 54.3416 56.3C53.9216 56.7667 53.3383 57 52.5916 57H43.2816C42.535 57 41.8583 56.8367 41.2516 56.51C40.645 56.1833 40.2483 55.6467 40.0616 54.9L36.8416 43.49C36.7016 43.0233 36.515 42.72 36.2816 42.58C36.095 42.3933 35.8616 42.3 35.5816 42.3H34.9516C34.6716 42.3 34.415 42.3933 34.1816 42.58C33.995 42.72 33.8316 43.0233 33.6916 43.49L30.4016 54.9C30.215 55.6 29.865 56.1367 29.3516 56.51C28.8383 56.8367 28.2083 57 27.4616 57H18.2216C17.475 57 16.8216 56.7667 16.2616 56.3C15.7483 55.8333 15.375 55.2267 15.1416 54.48L11.6416 44.82C11.035 43.0933 10.6616 41.6 10.5216 40.34C10.4283 39.0333 10.3816 37.6333 10.3816 36.14V9.12C10.3816 8.23333 10.5683 7.60333 10.9416 7.23C11.3616 6.81 12.015 6.6 12.9016 6.6H23.6816C24.5683 6.6 25.1983 6.81 25.5716 7.23C25.9916 7.60333 26.2016 8.23333 26.2016 9.12V34.88L30.2616 26.06C30.635 25.2667 31.125 24.7067 31.7316 24.38C32.3383 24.0533 33.085 23.89 33.9716 23.89H36.9116C37.7983 23.89 38.545 24.0533 39.1516 24.38C39.7583 24.7067 40.2483 25.2667 40.6216 26.06L44.6816 34.88V9.12C44.6816 8.23333 44.8683 7.60333 45.2416 7.23C45.6616 6.81 46.315 6.6 47.2016 6.6ZM106.185 57H73.7055C72.8188 57 72.1655 56.8133 71.7455 56.44C71.3721 56.02 71.1855 55.3667 71.1855 54.48V9.12C71.1855 8.23333 71.3721 7.60333 71.7455 7.23C72.1655 6.81 72.8188 6.6 73.7055 6.6H106.185C107.072 6.6 107.702 6.81 108.075 7.23C108.495 7.60333 108.705 8.23333 108.705 9.12V17.31C108.705 18.1967 108.495 18.85 108.075 19.27C107.702 19.6433 107.072 19.83 106.185 19.83H86.8655V25.22H100.515C101.402 25.22 102.032 25.43 102.405 25.85C102.825 26.2233 103.035 26.8533 103.035 27.74V35.23C103.035 36.1167 102.825 36.77 102.405 37.19C102.032 37.5633 101.402 37.75 100.515 37.75H86.8655V43.77H106.185C107.072 43.77 107.702 43.98 108.075 44.4C108.495 44.7733 108.705 45.4033 108.705 46.29V54.48C108.705 55.3667 108.495 56.02 108.075 56.44C107.702 56.8133 107.072 57 106.185 57ZM157.136 57H121.506C120.62 57 119.966 56.8133 119.546 56.44C119.173 56.02 118.986 55.3667 118.986 54.48V9.12C118.986 8.23333 119.173 7.60333 119.546 7.23C119.966 6.81 120.62 6.6 121.506 6.6H132.356C133.243 6.6 133.873 6.81 134.246 7.23C134.666 7.60333 134.876 8.23333 134.876 9.12V43.77H144.466V32.43C144.466 31.5433 144.653 30.9133 145.026 30.54C145.446 30.12 146.1 29.91 146.986 29.91H157.136C158.023 29.91 158.653 30.12 159.026 30.54C159.446 30.9133 159.656 31.5433 159.656 32.43V54.48C159.656 55.3667 159.446 56.02 159.026 56.44C158.653 56.8133 158.023 57 157.136 57ZM203.188 57H186.108C180.275 57 175.935 55.8333 173.088 53.5C170.288 51.1667 168.888 47.5733 168.888 42.72V20.95C168.888 16.0967 170.288 12.5033 173.088 10.17C175.935 7.79 180.275 6.6 186.108 6.6H203.188C204.075 6.6 204.705 6.81 205.078 7.23C205.498 7.60333 205.708 8.23333 205.708 9.12V17.59C205.708 18.4767 205.498 19.13 205.078 19.55C204.705 19.9233 204.075 20.11 203.188 20.11H189.118C187.671 20.11 186.598 20.4133 185.898 21.02C185.198 21.58 184.848 22.4433 184.848 23.61V40.27C184.848 41.4367 185.198 42.3 185.898 42.86C186.598 43.3733 187.671 43.63 189.118 43.63H203.188C204.075 43.63 204.705 43.84 205.078 44.26C205.498 44.6333 205.708 45.2633 205.708 46.15V54.48C205.708 55.3667 205.498 56.02 205.078 56.44C204.705 56.8133 204.075 57 203.188 57ZM257.971 43.77C257.971 45.9167 257.645 47.8767 256.991 49.65C256.385 51.3767 255.265 52.87 253.631 54.13C252.045 55.3433 249.828 56.3 246.981 57C244.181 57.7 240.611 58.05 236.271 58.05C231.931 58.05 228.338 57.7 225.491 57C222.645 56.3 220.405 55.3433 218.771 54.13C217.185 52.87 216.065 51.3767 215.411 49.65C214.805 47.8767 214.501 45.9167 214.501 43.77V19.9C214.501 17.7533 214.805 15.8167 215.411 14.09C216.065 12.3167 217.185 10.8 218.771 9.54C220.405 8.28 222.645 7.3 225.491 6.6C228.338 5.9 231.931 5.55 236.271 5.55C240.611 5.55 244.181 5.9 246.981 6.6C249.828 7.3 252.045 8.28 253.631 9.54C255.265 10.8 256.385 12.3167 256.991 14.09C257.645 15.8167 257.971 17.7533 257.971 19.9V43.77ZM230.391 41.25C230.391 42.1833 230.741 42.9767 231.441 43.63C232.141 44.2367 233.751 44.54 236.271 44.54C238.791 44.54 240.401 44.2367 241.101 43.63C241.801 42.9767 242.151 42.1833 242.151 41.25V22.42C242.151 21.5333 241.801 20.7867 241.101 20.18C240.401 19.5267 238.791 19.2 236.271 19.2C233.751 19.2 232.141 19.5267 231.441 20.18C230.741 20.7867 230.391 21.5333 230.391 22.42V41.25ZM281.833 57H271.403C270.516 57 269.863 56.8133 269.443 56.44C269.069 56.02 268.883 55.3667 268.883 54.48V9.12C268.883 8.23333 269.069 7.60333 269.443 7.23C269.863 6.81 270.516 6.6 271.403 6.6H282.673C283.419 6.6 284.026 6.76333 284.493 7.09C285.006 7.41666 285.473 7.95333 285.893 8.7L292.193 20.11C292.426 20.53 292.613 20.8333 292.753 21.02C292.939 21.2067 293.173 21.3 293.453 21.3H294.083C294.363 21.3 294.573 21.2067 294.713 21.02C294.899 20.8333 295.109 20.53 295.343 20.11L301.573 8.7C301.993 7.95333 302.436 7.41666 302.903 7.09C303.416 6.76333 304.046 6.6 304.793 6.6H316.133C317.019 6.6 317.649 6.81 318.023 7.23C318.443 7.60333 318.653 8.23333 318.653 9.12V54.48C318.653 55.3667 318.443 56.02 318.023 56.44C317.649 56.8133 317.019 57 316.133 57H305.353C304.466 57 303.813 56.8133 303.393 56.44C303.019 56.02 302.833 55.3667 302.833 54.48V29.84L298.703 37.47C298.283 38.2633 297.769 38.8467 297.163 39.22C296.603 39.5467 295.879 39.71 294.993 39.71H292.193C291.306 39.71 290.559 39.5467 289.953 39.22C289.393 38.8467 288.903 38.2633 288.483 37.47L284.353 29.84V54.48C284.353 55.3667 284.143 56.02 283.723 56.44C283.349 56.8133 282.719 57 281.833 57ZM365.287 57H332.807C331.92 57 331.267 56.8133 330.847 56.44C330.474 56.02 330.287 55.3667 330.287 54.48V9.12C330.287 8.23333 330.474 7.60333 330.847 7.23C331.267 6.81 331.92 6.6 332.807 6.6H365.287C366.174 6.6 366.804 6.81 367.177 7.23C367.597 7.60333 367.807 8.23333 367.807 9.12V17.31C367.807 18.1967 367.597 18.85 367.177 19.27C366.804 19.6433 366.174 19.83 365.287 19.83H345.967V25.22H359.617C360.504 25.22 361.134 25.43 361.507 25.85C361.927 26.2233 362.137 26.8533 362.137 27.74V35.23C362.137 36.1167 361.927 36.77 361.507 37.19C361.134 37.5633 360.504 37.75 359.617 37.75H345.967V43.77H365.287C366.174 43.77 366.804 43.98 367.177 44.4C367.597 44.7733 367.807 45.4033 367.807 46.29V54.48C367.807 55.3667 367.597 56.02 367.177 56.44C366.804 56.8133 366.174 57 365.287 57ZM418.927 57H407.587C406.7 57 406.047 56.8133 405.627 56.44C405.254 56.02 405.067 55.3667 405.067 54.48V20.11H394.777C393.89 20.11 393.237 19.9233 392.817 19.55C392.444 19.13 392.257 18.4767 392.257 17.59V9.12C392.257 8.23333 392.444 7.60333 392.817 7.23C393.237 6.81 393.89 6.6 394.777 6.6H431.737C432.624 6.6 433.254 6.81 433.627 7.23C434.047 7.60333 434.257 8.23333 434.257 9.12V17.59C434.257 18.4767 434.047 19.13 433.627 19.55C433.254 19.9233 432.624 20.11 431.737 20.11H421.447V54.48C421.447 55.3667 421.237 56.02 420.817 56.44C420.444 56.8133 419.814 57 418.927 57ZM485.423 43.77C485.423 45.9167 485.096 47.8767 484.443 49.65C483.836 51.3767 482.716 52.87 481.083 54.13C479.496 55.3433 477.279 56.3 474.433 57C471.633 57.7 468.063 58.05 463.723 58.05C459.383 58.05 455.789 57.7 452.943 57C450.096 56.3 447.856 55.3433 446.223 54.13C444.636 52.87 443.516 51.3767 442.863 49.65C442.256 47.8767 441.953 45.9167 441.953 43.77V19.9C441.953 17.7533 442.256 15.8167 442.863 14.09C443.516 12.3167 444.636 10.8 446.223 9.54C447.856 8.28 450.096 7.3 452.943 6.6C455.789 5.9 459.383 5.55 463.723 5.55C468.063 5.55 471.633 5.9 474.433 6.6C477.279 7.3 479.496 8.28 481.083 9.54C482.716 10.8 483.836 12.3167 484.443 14.09C485.096 15.8167 485.423 17.7533 485.423 19.9V43.77ZM457.843 41.25C457.843 42.1833 458.193 42.9767 458.893 43.63C459.593 44.2367 461.203 44.54 463.723 44.54C466.243 44.54 467.853 44.2367 468.553 43.63C469.253 42.9767 469.603 42.1833 469.603 41.25V22.42C469.603 21.5333 469.253 20.7867 468.553 20.18C467.853 19.5267 466.243 19.2 463.723 19.2C461.203 19.2 459.593 19.5267 458.893 20.18C458.193 20.7867 457.843 21.5333 457.843 22.42V41.25Z" fill="white"/>
<path d="M527.427 57H516.577C515.69 57 515.037 56.8133 514.617 56.44C514.243 56.02 514.057 55.3667 514.057 54.48V9.12C514.057 8.23333 514.243 7.60333 514.617 7.23C515.037 6.81 515.69 6.6 516.577 6.6H537.997C544.343 6.6 548.683 7.86 551.017 10.38C553.35 12.9 554.517 16.19 554.517 20.25V29.21C554.517 33.27 553.35 36.56 551.017 39.08C548.683 41.6 544.343 42.86 537.997 42.86H529.947V54.48C529.947 55.3667 529.737 56.02 529.317 56.44C528.943 56.8133 528.313 57 527.427 57ZM529.807 19.69V30.26H536.107C537.46 30.26 538.347 29.91 538.767 29.21C539.187 28.51 539.397 27.7167 539.397 26.83V23.12C539.397 22.2333 539.187 21.44 538.767 20.74C538.347 20.04 537.46 19.69 536.107 19.69H529.807ZM606.471 43.77C606.471 45.9167 606.145 47.8767 605.491 49.65C604.885 51.3767 603.765 52.87 602.131 54.13C600.545 55.3433 598.328 56.3 595.481 57C592.681 57.7 589.111 58.05 584.771 58.05C580.431 58.05 576.838 57.7 573.991 57C571.145 56.3 568.905 55.3433 567.271 54.13C565.685 52.87 564.565 51.3767 563.911 49.65C563.305 47.8767 563.001 45.9167 563.001 43.77V19.9C563.001 17.7533 563.305 15.8167 563.911 14.09C564.565 12.3167 565.685 10.8 567.271 9.54C568.905 8.28 571.145 7.3 573.991 6.6C576.838 5.9 580.431 5.55 584.771 5.55C589.111 5.55 592.681 5.9 595.481 6.6C598.328 7.3 600.545 8.28 602.131 9.54C603.765 10.8 604.885 12.3167 605.491 14.09C606.145 15.8167 606.471 17.7533 606.471 19.9V43.77ZM578.891 41.25C578.891 42.1833 579.241 42.9767 579.941 43.63C580.641 44.2367 582.251 44.54 584.771 44.54C587.291 44.54 588.901 44.2367 589.601 43.63C590.301 42.9767 590.651 42.1833 590.651 41.25V22.42C590.651 21.5333 590.301 20.7867 589.601 20.18C588.901 19.5267 587.291 19.2 584.771 19.2C582.251 19.2 580.641 19.5267 579.941 20.18C579.241 20.7867 578.891 21.5333 578.891 22.42V41.25ZM630.403 57H619.903C619.016 57 618.363 56.8133 617.943 56.44C617.569 56.02 617.383 55.3667 617.383 54.48V9.12C617.383 8.23333 617.569 7.60333 617.943 7.23C618.363 6.81 619.016 6.6 619.903 6.6H627.183C628.069 6.6 628.816 6.74 629.423 7.02C630.076 7.3 630.706 7.79 631.313 8.49L644.893 24.03V9.12C644.893 8.23333 645.079 7.60333 645.453 7.23C645.873 6.81 646.526 6.6 647.413 6.6H657.913C658.799 6.6 659.429 6.81 659.803 7.23C660.223 7.60333 660.433 8.23333 660.433 9.12V54.48C660.433 55.3667 660.223 56.02 659.803 56.44C659.429 56.8133 658.799 57 657.913 57H647.413C646.526 57 645.873 56.8133 645.453 56.44C645.079 56.02 644.893 55.3667 644.893 54.48V45.87L632.923 31.38V54.48C632.923 55.3667 632.713 56.02 632.293 56.44C631.919 56.8133 631.289 57 630.403 57ZM710.588 57H688.538C682.704 57 678.364 55.8333 675.518 53.5C672.718 51.1667 671.318 47.5733 671.318 42.72V20.88C671.318 16.0267 672.718 12.4333 675.518 10.1C678.364 7.76666 682.704 6.6 688.538 6.6H706.038C706.924 6.6 707.554 6.81 707.928 7.23C708.348 7.60333 708.558 8.23333 708.558 9.12V17.59C708.558 18.4767 708.348 19.13 707.928 19.55C707.554 19.9233 706.924 20.11 706.038 20.11H691.478C690.031 20.11 688.958 20.4133 688.258 21.02C687.558 21.58 687.208 22.4433 687.208 23.61V40.34C687.208 41.5067 687.464 42.37 687.978 42.93C688.538 43.49 689.354 43.77 690.428 43.77H697.218V32.85C697.218 31.9633 697.404 31.3333 697.778 30.96C698.198 30.54 698.851 30.33 699.738 30.33H710.588C711.474 30.33 712.104 30.54 712.478 30.96C712.898 31.3333 713.108 31.9633 713.108 32.85V54.48C713.108 55.3667 712.898 56.02 712.478 56.44C712.104 56.8133 711.474 57 710.588 57Z" fill="#E700FF"/>
</g>
<defs>
<filter id="filter0_d_471_3201" x="0.381592" y="0.550049" width="722.726" height="72.5" filterUnits="userSpaceOnUse" color-interpolation-filters="sRGB">
<feFlood flood-opacity="0" result="BackgroundImageFix"/>
<feColorMatrix in="SourceAlpha" type="matrix" values="0 0 0 0 0 0 0 0 0 0 0 0 0 0 0 0 0 0 127 0" result="hardAlpha"/>
<feOffset dy="5"/>
<feGaussianBlur stdDeviation="5"/>
<feComposite in2="hardAlpha" operator="out"/>
<feColorMatrix type="matrix" values="0 0 0 0 1 0 0 0 0 1 0 0 0 0 1 0 0 0 0.5 0"/>
<feBlend mode="normal" in2="BackgroundImageFix" result="effect1_dropShadow_471_3201"/>
<feBlend mode="normal" in="SourceGraphic" in2="effect1_dropShadow_471_3201" result="shape"/>
</filter>
</defs>
</svg>
